name baseline.mot
datacolumns 19
datarows 20
range 1.02665900000000 1.05833400000000
endheader
time	ground_force1_vx	ground_force1_vy	ground_force1_vz	ground_force1_px	ground_force1_py	ground_force1_pz	ground_force2_vx	ground_force2_vy	ground_force2_vz	ground_force2_px	ground_force2_py	ground_force2_pz	ground_torque1_x	ground_torque1_y	ground_torque1_z	ground_torque2_x	ground_torque2_y	ground_torque2_z	
1.02665900000000	-4.63226200000000	41.01266000000000	-7.65975700000000	0.17109700000000	0.00000000000000	0.09895400000000	-54.75144000000000	769.73748000000001	-61.97570300000000	-0.05686400000000	0.00000000000000	-0.11647700000000	0.00000000000000	-2.50805100000000	0.00000000000000	0.00000000000000	-2.62551000000000	0.00000000000000	
1.02833200000000	-4.91681200000000	48.06750700000000	-8.54020300000000	0.17525900000000	0.00000000000000	0.09977500000000	-55.49593300000000	767.63262299999997	-61.68691700000000	-0.05760800000000	0.00000000000000	-0.11636500000000	0.00000000000000	-2.87749500000000	0.00000000000000	0.00000000000000	-2.76492400000000	0.00000000000000	
1.03000100000000	-5.06814600000000	55.21096800000000	-9.31345200000000	0.17903200000000	0.00000000000000	0.10053100000000	-56.25746100000000	765.42769599999997	-61.38042500000000	-0.05835300000000	0.00000000000000	-0.11625000000000	0.00000000000000	-3.22870300000000	0.00000000000000	0.00000000000000	-2.91271300000000	0.00000000000000	
1.03166000000000	-5.07267800000000	62.35113700000000	-9.95892400000000	0.18247300000000	0.00000000000000	0.10123300000000	-57.03539700000000	763.11960799999997	-61.05602400000000	-0.05909700000000	0.00000000000000	-0.11613100000000	0.00000000000000	-3.55382300000000	0.00000000000000	0.00000000000000	-3.06879600000000	0.00000000000000	
1.03333200000000	-4.92318300000000	69.41858100000000	-10.46342100000000	0.18563000000000	0.00000000000000	0.10188700000000	-57.82903000000000	760.70521199999996	-60.71351300000000	-0.05984200000000	0.00000000000000	-0.11601000000000	0.00000000000000	-3.84713900000000	0.00000000000000	0.00000000000000	-3.23307200000000	0.00000000000000	
1.03500100000000	-4.61856800000000	76.36847700000000	-10.82114100000000	0.18853900000000	0.00000000000000	0.10250000000000	-58.63756900000000	758.18131400000004	-60.35270300000000	-0.06058500000000	0.00000000000000	-0.11588500000000	0.00000000000000	-4.10520400000000	0.00000000000000	0.00000000000000	-3.40542000000000	0.00000000000000	
1.03666300000000	-4.16318000000000	83.18036700000000	-11.03308800000000	0.19123100000000	0.00000000000000	0.10307700000000	-59.46013700000000	755.54468599999996	-59.97340900000000	-0.06132800000000	0.00000000000000	-0.11575700000000	0.00000000000000	-4.32676300000000	0.00000000000000	0.00000000000000	-3.58569400000000	0.00000000000000	
1.03832800000000	-3.56579400000000	89.85594500000001	-11.10602700000000	0.19373200000000	0.00000000000000	0.10362300000000	-60.29577600000000	752.79206799999997	-59.57545900000000	-0.06207000000000	0.00000000000000	-0.11562600000000	0.00000000000000	-4.51251500000000	0.00000000000000	0.00000000000000	-3.77373000000000	0.00000000000000	
1.04001100000000	-2.83840700000000	96.41540000000001	-11.05113600000000	0.19606100000000	0.00000000000000	0.10414000000000	-61.14343800000000	749.92018800000005	-59.15868900000000	-0.06281100000000	0.00000000000000	-0.11549200000000	0.00000000000000	-4.66474900000000	0.00000000000000	0.00000000000000	-3.96933800000000	0.00000000000000	
1.04166300000000	-1.99498300000000	102.89287200000000	-10.88254600000000	0.19823800000000	0.00000000000000	0.10463200000000	-62.00199400000000	746.92576399999996	-58.72294900000000	-0.06355100000000	0.00000000000000	-0.11535500000000	0.00000000000000	-4.78691300000000	0.00000000000000	0.00000000000000	-4.17230800000000	0.00000000000000	
1.04333300000000	-1.05025200000000	109.33154700000000	-10.61587900000000	0.20027600000000	0.00000000000000	0.10510200000000	-62.87022700000000	743.80552000000000	-58.26810100000000	-0.06429000000000	0.00000000000000	-0.11521500000000	0.00000000000000	-4.88316100000000	0.00000000000000	0.00000000000000	-4.38240700000000	0.00000000000000	
1.04500000000000	-0.01866100000000	115.77886200000000	-10.26692600000000	0.20218800000000	0.00000000000000	0.10555100000000	-63.74683700000000	740.55619600000000	-57.79402100000000	-0.06502600000000	0.00000000000000	-0.11507100000000	0.00000000000000	-4.95792600000000	0.00000000000000	0.00000000000000	-4.59937700000000	0.00000000000000	
1.04666100000000	1.08648100000000	122.28217400000000	-9.85053400000000	0.20398500000000	0.00000000000000	0.10598200000000	-64.63043800000000	737.17456200000004	-57.30060300000000	-0.06576200000000	0.00000000000000	-0.11492400000000	0.00000000000000	-5.01553500000000	0.00000000000000	0.00000000000000	-4.82293900000000	0.00000000000000	
1.04833300000000	2.25361100000000	128.88515699999999	-9.37975800000000	0.20567700000000	0.00000000000000	0.10639500000000	-65.51956199999999	733.65742799999998	-56.78775600000000	-0.06649500000000	0.00000000000000	-0.11477500000000	0.00000000000000	-5.05990400000000	0.00000000000000	0.00000000000000	-5.05279000000000	0.00000000000000	
1.05001400000000	3.47328400000000	135.62507900000000	-8.86529900000000	0.20727000000000	0.00000000000000	0.10679300000000	-66.41265700000000	730.00165500000003	-56.25541100000000	-0.06722600000000	0.00000000000000	-0.11462200000000	0.00000000000000	-5.09432200000000	0.00000000000000	0.00000000000000	-5.28860500000000	0.00000000000000	
1.05167000000000	4.73831600000000	142.53101699999999	-8.31521600000000	0.20877100000000	0.00000000000000	0.10717700000000	-67.30809400000000	726.20417299999997	-55.70351800000000	-0.06795500000000	0.00000000000000	-0.11446600000000	0.00000000000000	-5.12131000000000	0.00000000000000	0.00000000000000	-5.53003400000000	0.00000000000000	
1.05333000000000	6.04372900000000	149.62295800000001	-7.73489100000000	0.21018700000000	0.00000000000000	0.10754700000000	-68.20416100000000	722.26198899999997	-55.13205100000000	-0.06868200000000	0.00000000000000	-0.11430700000000	0.00000000000000	-5.14257700000000	0.00000000000000	0.00000000000000	-5.77670700000000	0.00000000000000	
1.05499200000000	7.38653600000000	156.91172000000000	-7.12719900000000	0.21152200000000	0.00000000000000	0.10790400000000	-69.09907300000000	718.17220199999997	-54.54100700000000	-0.06940600000000	0.00000000000000	-0.11414500000000	0.00000000000000	-5.15903500000000	0.00000000000000	0.00000000000000	-6.02822800000000	0.00000000000000	
1.05667200000000	8.76541200000000	164.39952299999999	-6.49283500000000	0.21278100000000	0.00000000000000	0.10825000000000	-69.99097200000000	713.93201899999997	-53.93041100000000	-0.07012800000000	0.00000000000000	-0.11398000000000	0.00000000000000	-5.17088100000000	0.00000000000000	0.00000000000000	-6.28418200000000	0.00000000000000	
1.05833400000000	10.18030200000000	172.08107300000000	-5.83074600000000	0.21396700000000	0.00000000000000	0.10858500000000	-70.87792500000000	709.53876400000001	-53.30031500000000	-0.07084700000000	0.00000000000000	-0.11381200000000	0.00000000000000	-5.17771500000000	0.00000000000000	0.00000000000000	-6.54413000000000	0.00000000000000	
